<?xml version="1.0" encoding="UTF-8"?>
<svg id="Layer_1" data-name="Layer 1" xmlns="http://www.w3.org/2000/svg" viewBox="0 0 763.9 89.6">
  <defs>
    <style>
      .cls-1 {
        fill: #1d1d1b;
      }

      .cls-2 {
        fill: #212121;
      }

      .cls-3 {
        fill: #b0667d;
      }

      .cls-4 {
        fill: #3d5e73;
      }

      .cls-5 {
        fill: #fff;
        stroke: #212121;
        stroke-miterlimit: 10;
        stroke-width: .98px;
      }

      .cls-6 {
        fill: #008278;
      }

      .cls-7 {
        fill: #a6c7bf;
      }

      .cls-8 {
        fill: #8ca6a1;
      }
    </style>
  </defs>
  <path class="cls-7" d="M15.9,10.56c6.72-3.15,15.34.1,22-3.3C45.75,2.84,54.45,1.58,62.51,0c.34,1.75.16,4.5,1.01,5.24,3.24,2.09,3.97,5.58,4.67,9.07.35,1.74-2.12.41-1.07,2.02-2.11.43-5.52,1.95-3.06,3.31,1.05,1.62,3.57-.69,4.81,1.79,1.25,2.48.32,5.38,1.57,7.86.74-.15,2.21-.46,2.95-.61,1.11,1.59.35,5.39,1.09,5.23,2.62,1.28,5.43-.27,8.41-.95.39,1.74,1.58,3.29.26,4.51-13.03,3.96-26.48,7.62-40.23,9.88-13.73,2.27-27.76,3.14-41.45,1.61-3.12-.92-.68-4.46,1.63-7.1-.78.88-.74-1.79-1.52-.91.04-2.68,1.61-7.09,4.59-7.98h-2.24c-.74-.91.02-2.68.03-4.46.74,0,1.47.01,1.47-.88,0-.89,0-2.67,0-3.56-.72,0-2.18-.02-2.9-.03.72,0,1.45.01,1.46-.88,0-.89.02-2.67.03-3.56,1.43-.86,3.58.89,5.01,0l-.02-2.67c-1.42-.89-3.54.03-4.97,0,.72-.88.72-1.77.73-3.56,2.09-.89,4.23,1.78,6.29-.93l-2.1.02c1.34-4.45,4.85-.97,6.93-1.92"/>
  <path class="cls-8" d="M127.96,10.56c6.72-3.15,15.34.1,22-3.3,7.85-4.42,16.54-5.69,24.61-7.27.34,1.75.16,4.5,1.01,5.24,3.24,2.09,3.97,5.58,4.67,9.07.35,1.74-2.12.41-1.07,2.02-2.12.43-5.52,1.95-3.06,3.31,1.05,1.62,3.57-.69,4.81,1.79,1.25,2.48.32,5.38,1.57,7.86.74-.15,2.21-.46,2.95-.61,1.11,1.59.35,5.39,1.09,5.23,2.62,1.28,5.43-.27,8.41-.95.39,1.74,1.58,3.29.26,4.51-13.03,3.96-26.48,7.62-40.24,9.88-13.73,2.27-27.76,3.14-41.45,1.61-3.12-.92-.68-4.46,1.63-7.1-.78.88-.74-1.79-1.52-.91.04-2.68,1.61-7.09,4.59-7.98h-2.24c-.74-.91.02-2.68.03-4.46.74,0,1.47.01,1.47-.88,0-.89,0-2.67,0-3.56-.72,0-2.18-.02-2.9-.03.72,0,1.45.01,1.46-.88,0-.89.02-2.67.03-3.56,1.43-.86,3.58.89,5.01,0l-.02-2.67c-1.42-.89-3.54.03-4.97,0,.72-.88.72-1.77.73-3.56,2.09-.89,4.23,1.78,6.29-.93l-2.1.02c1.34-4.45,4.85-.96,6.93-1.92"/>
  <path class="cls-6" d="M240.02,10.56c6.72-3.14,15.34.1,22-3.3,7.85-4.42,16.55-5.69,24.61-7.27.34,1.75.16,4.5,1.01,5.24,3.24,2.09,3.97,5.58,4.67,9.07.35,1.74-2.12.41-1.07,2.02-2.11.43-5.52,1.95-3.06,3.31,1.05,1.62,3.57-.69,4.81,1.79,1.25,2.48.32,5.38,1.57,7.86.74-.15,2.21-.46,2.95-.61,1.11,1.59.35,5.39,1.09,5.23,2.62,1.28,5.43-.27,8.41-.95.39,1.74,1.58,3.29.26,4.51-13.03,3.96-26.48,7.62-40.23,9.88-13.73,2.27-27.76,3.14-41.45,1.61-3.12-.92-.68-4.46,1.63-7.1-.78.88-.74-1.79-1.52-.91.04-2.68,1.61-7.09,4.59-7.98h-2.24c-.74-.91.02-2.68.03-4.46.74,0,1.47.01,1.47-.88,0-.89,0-2.67,0-3.56-.72,0-2.18-.02-2.9-.03.72,0,1.45.01,1.46-.88,0-.89.02-2.67.02-3.56,1.43-.86,3.58.89,5.01,0l-.02-2.67c-1.42-.89-3.54.03-4.97,0,.72-.88.72-1.77.73-3.56,2.09-.89,4.23,1.78,6.29-.93l-2.1.02c1.34-4.45,4.85-.96,6.93-1.92"/>
  <path class="cls-3" d="M464.14,10.56c6.72-3.15,15.34.1,22-3.3C493.99,2.84,502.68,1.58,510.74,0c.34,1.75.16,4.5,1.01,5.24,3.24,2.09,3.97,5.58,4.67,9.07.35,1.74-2.11.41-1.06,2.02-2.11.43-5.52,1.95-3.06,3.31,1.05,1.62,3.57-.69,4.81,1.79,1.25,2.48.32,5.38,1.57,7.85.74-.15,2.21-.45,2.95-.6,1.11,1.59.35,5.39,1.09,5.23,2.62,1.28,5.43-.27,8.41-.95.39,1.74,1.58,3.29.27,4.51-13.03,3.96-26.48,7.62-40.23,9.88-13.73,2.27-27.76,3.14-41.45,1.61-3.12-.92-.68-4.46,1.63-7.1-.78.88-.74-1.79-1.52-.91.04-2.68,1.61-7.09,4.59-7.98h-2.24c-.74-.91.02-2.68.03-4.46.74,0,1.47.01,1.47-.88,0-.89,0-2.67,0-3.56-.72,0-2.18-.02-2.9-.03.73,0,1.45.01,1.46-.88,0-.89.02-2.67.02-3.56,1.43-.86,3.58.89,5.01,0l-.02-2.67c-1.42-.89-3.54.03-4.97,0,.72-.88.72-1.77.73-3.56,2.09-.89,4.23,1.78,6.29-.93l-2.1.02c1.34-4.45,4.85-.97,6.93-1.92"/>
  <path class="cls-4" d="M352.08,10.56c6.72-3.15,15.34.1,22-3.3,7.85-4.42,16.54-5.69,24.61-7.27.34,1.75.16,4.5,1.01,5.24,3.24,2.09,3.97,5.58,4.67,9.07.35,1.74-2.11.41-1.06,2.02-2.11.43-5.52,1.95-3.06,3.31,1.05,1.62,3.57-.69,4.81,1.79,1.25,2.48.32,5.38,1.57,7.86.74-.15,2.21-.46,2.95-.61,1.11,1.59.35,5.39,1.09,5.23,2.62,1.28,5.43-.27,8.41-.95.39,1.74,1.58,3.29.27,4.51-13.03,3.96-26.48,7.62-40.24,9.88-13.73,2.27-27.76,3.14-41.45,1.61-3.12-.92-.68-4.46,1.63-7.1-.78.88-.74-1.79-1.52-.91.04-2.68,1.61-7.09,4.59-7.98h-2.24c-.74-.91.02-2.68.03-4.46.74,0,1.47.01,1.47-.88,0-.89,0-2.67,0-3.56-.72,0-2.18-.02-2.9-.03.73,0,1.45.01,1.46-.88,0-.89.02-2.67.02-3.56,1.43-.86,3.58.89,5.01,0l-.02-2.67c-1.42-.89-3.54.03-4.97,0,.72-.88.72-1.77.73-3.56,2.09-.89,4.23,1.78,6.29-.93l-2.1.02c1.34-4.45,4.85-.96,6.93-1.92"/>
  <path class="cls-2" d="M583,10.56c6.72-3.15,15.34.1,22-3.3,7.85-4.42,16.54-5.69,24.61-7.26.34,1.75.16,4.5,1.01,5.25,3.24,2.09,3.97,5.58,4.67,9.07.35,1.74-2.12.41-1.06,2.02-2.11.43-5.52,1.95-3.06,3.31,1.05,1.62,3.57-.69,4.81,1.79,1.25,2.48.32,5.38,1.57,7.86.74-.15,2.21-.45,2.95-.61,1.11,1.59.35,5.39,1.09,5.23,2.62,1.28,5.43-.27,8.41-.95.39,1.74,1.58,3.29.26,4.51-13.03,3.96-26.48,7.62-40.23,9.88-13.73,2.27-27.76,3.14-41.45,1.61-3.12-.92-.68-4.46,1.63-7.1-.78.88-.74-1.79-1.52-.91.04-2.68,1.61-7.09,4.59-7.98h-2.24c-.74-.91.02-2.68.03-4.46.74,0,1.47.01,1.47-.88,0-.89,0-2.67,0-3.56-.72,0-2.18-.02-2.9-.03.73,0,1.45.01,1.46-.88,0-.89.02-2.67.03-3.56,1.43-.86,3.58.89,5.01,0l-.02-2.67c-1.42-.89-3.54.03-4.97,0,.72-.88.72-1.77.73-3.56,2.09-.89,4.23,1.78,6.29-.93l-2.1.02c1.34-4.45,4.85-.97,6.93-1.92"/>
  <path class="cls-5" d="M695.55,11.14c6.72-3.15,15.34.1,22-3.3,7.85-4.42,16.54-5.69,24.61-7.26.34,1.75.16,4.5,1.01,5.25,3.24,2.09,3.97,5.58,4.67,9.07.35,1.74-2.11.41-1.06,2.02-2.11.43-5.52,1.95-3.06,3.31,1.05,1.62,3.57-.69,4.81,1.79,1.25,2.48.32,5.38,1.57,7.86.74-.15,2.21-.45,2.95-.61,1.11,1.59.35,5.39,1.09,5.23,2.62,1.28,5.43-.27,8.41-.95.39,1.74,1.58,3.29.26,4.51-13.03,3.96-26.48,7.62-40.24,9.88-13.73,2.27-27.76,3.14-41.45,1.61-3.12-.92-.68-4.46,1.63-7.1-.78.88-.74-1.79-1.52-.9.04-2.68,1.61-7.09,4.59-7.98h-2.24c-.74-.91.02-2.68.03-4.46.74,0,1.47.01,1.47-.88,0-.89,0-2.67,0-3.56-.72,0-2.18-.02-2.9-.03.72,0,1.45.01,1.46-.88,0-.89.02-2.67.03-3.56,1.43-.86,3.58.89,5.01,0l-.02-2.67c-1.42-.89-3.54.03-4.97,0,.72-.88.72-1.77.73-3.56,2.09-.89,4.23,1.78,6.29-.93l-2.1.02c1.34-4.45,4.85-.97,6.93-1.92Z"/>
  <g>
    <path class="cls-1" d="M11.8,71.2l-.8,4.1h3.1l-.2,1.3h-3.14l-.62,3.2h2.96l-.2,1.3h-3.02l-.78,4.1h-1.3l.78-4.1h-3.8l-.78,4.1h-1.3l.78-4.1H.4l.2-1.3h3.14l.62-3.2H1.4l.2-1.3h3l.8-4.1h1.3l-.8,4.1h3.8l.8-4.1h1.3ZM5.04,79.8h3.8l.62-3.2h-3.8l-.62,3.2Z"/>
    <path class="cls-1" d="M21.8,79.1c0-1.4-1-2.4-2.4-2.4-1.7,0-2.7,1.4-2.7,1.4l-.9-.9s1.3-1.8,3.6-1.8,3.8,1.6,3.8,3.7v6.1h-1.4v-1.3s-1,1.5-3.1,1.5-3.4-1.4-3.4-2.8c0-1.6,1-2.6,2.8-2.9l3.7-.6ZM21.8,80.9v-.6l-3.3.6c-1.2.22-1.8.8-1.8,1.7,0,.8.7,1.5,2,1.5,1.8,0,3.1-1.3,3.1-3.2Z"/>
    <path class="cls-1" d="M35.6,80.8c0,2.6-2,4.6-4.8,4.6s-4.8-2-4.8-4.6c0-1.7,1-3,1-3l4.2-6.6h1.5l-3.3,5.2s.58-.2,1.5-.2c2.7,0,4.7,2,4.7,4.6ZM30.8,77.6c-2,0-3.3,1.3-3.3,3.2s1.3,3.2,3.3,3.2,3.3-1.3,3.3-3.2-1.3-3.2-3.3-3.2Z"/>
    <path class="cls-1" d="M42.3,75.4c2.5,0,3.9,1.9,3.9,1.9l-1,1s-1-1.6-2.9-1.6c-1.8,0-3.4,1.6-3.4,3.7s1.6,3.7,3.4,3.7c1.9,0,3-1.6,3-1.6l1,.9s-1.5,2-4,2-4.8-2.2-4.8-5,2.2-5,4.8-5Z"/>
    <path class="cls-1" d="M57.7,80.8c0,2.6-2,4.6-4.8,4.6s-4.8-2-4.8-4.6c0-1.7,1-3,1-3l4.2-6.6h1.5l-3.3,5.2s.58-.2,1.5-.2c2.7,0,4.7,2,4.7,4.6ZM52.9,77.6c-2,0-3.3,1.3-3.3,3.2s1.3,3.2,3.3,3.2,3.3-1.3,3.3-3.2-1.3-3.2-3.3-3.2Z"/>
    <path class="cls-1" d="M64.4,75.4c2.5,0,3.9,1.9,3.9,1.9l-1,1s-1-1.6-2.9-1.6c-1.8,0-3.4,1.6-3.4,3.7s1.6,3.7,3.4,3.7c1.9,0,3-1.6,3-1.6l1,.9s-1.5,2-4,2-4.8-2.2-4.8-5,2.2-5,4.8-5Z"/>
    <path class="cls-1" d="M75.92,85.4c-2.92,0-5.62-2.7-5.62-7.2s2.7-7.2,5.6-7.2,5.6,2.7,5.6,7.2-2.7,7.2-5.58,7.2ZM75.92,84c2.08,0,4.08-2,4.08-5.8s-2-5.8-4.1-5.8-4.1,2-4.1,5.8,2,5.8,4.12,5.8Z"/>
  </g>
  <g>
    <path class="cls-1" d="M580.79,71.01l-.8,4.1h3.1l-.2,1.3h-3.14l-.62,3.2h2.96l-.2,1.3h-3.02l-.78,4.1h-1.3l.78-4.1h-3.8l-.78,4.1h-1.3l.78-4.1h-3.08l.2-1.3h3.14l.62-3.2h-2.96l.2-1.3h3l.8-4.1h1.3l-.8,4.1h3.8l.8-4.1h1.3ZM574.03,79.61h3.8l.62-3.2h-3.8l-.62,3.2Z"/>
    <path class="cls-1" d="M584.29,85.01c0-5.9,7.5-6.1,7.5-10.1,0-1.6-1.1-2.7-3-2.7-2.5,0-3,2.4-3,2.4l-1.3-.6s.7-3.2,4.3-3.2c2.7,0,4.5,1.8,4.5,4.1,0,4.3-6.1,5-7.3,8.7h7.3v1.4h-9Z"/>
    <path class="cls-1" d="M595.28,85.01c0-5.9,7.5-6.1,7.5-10.1,0-1.6-1.1-2.7-3-2.7-2.5,0-3,2.4-3,2.4l-1.3-.6s.7-3.2,4.3-3.2c2.7,0,4.5,1.8,4.5,4.1,0,4.3-6.1,5-7.3,8.7h7.3v1.4h-9Z"/>
    <path class="cls-1" d="M606.28,85.01c0-5.9,7.5-6.1,7.5-10.1,0-1.6-1.1-2.7-3-2.7-2.5,0-3,2.4-3,2.4l-1.3-.6s.7-3.2,4.3-3.2c2.7,0,4.5,1.8,4.5,4.1,0,4.3-6.1,5-7.3,8.7h7.3v1.4h-9Z"/>
    <path class="cls-1" d="M617.28,85.01c0-5.9,7.5-6.1,7.5-10.1,0-1.6-1.1-2.7-3-2.7-2.5,0-3,2.4-3,2.4l-1.3-.6s.7-3.2,4.3-3.2c2.7,0,4.5,1.8,4.5,4.1,0,4.3-6.1,5-7.3,8.7h7.3v1.4h-9Z"/>
    <path class="cls-1" d="M628.28,85.01c0-5.9,7.5-6.1,7.5-10.1,0-1.6-1.1-2.7-3-2.7-2.5,0-3,2.4-3,2.4l-1.3-.6s.7-3.2,4.3-3.2c2.7,0,4.5,1.8,4.5,4.1,0,4.3-6.1,5-7.3,8.7h7.3v1.4h-9Z"/>
    <path class="cls-1" d="M639.28,85.01c0-5.9,7.5-6.1,7.5-10.1,0-1.6-1.1-2.7-3-2.7-2.5,0-3,2.4-3,2.4l-1.3-.6s.7-3.2,4.3-3.2c2.7,0,4.5,1.8,4.5,4.1,0,4.3-6.1,5-7.3,8.7h7.3v1.4h-9Z"/>
  </g>
  <g>
    <path class="cls-1" d="M692.85,71.01l-.8,4.1h3.1l-.2,1.3h-3.14l-.62,3.2h2.96l-.2,1.3h-3.02l-.78,4.1h-1.3l.78-4.1h-3.8l-.78,4.1h-1.3l.78-4.1h-3.08l.2-1.3h3.14l.62-3.2h-2.96l.2-1.3h3l.8-4.1h1.3l-.8,4.1h3.8l.8-4.1h1.3ZM686.09,79.61h3.8l.62-3.2h-3.8l-.62,3.2Z"/>
    <path class="cls-1" d="M706.95,76.71h-2.3v8.3h-1.4v-8.3h-4.3v8.3h-1.4v-8.3h-1.5v-1.3h1.5v-1.4c0-1.8,1-2.8,2.6-2.8.8,0,1.4.3,1.4.3v1.3s-.6-.3-1.3-.3c-.8,0-1.3.5-1.3,1.5v1.4h4.3v-1.8c0-1.8,1-2.8,2.6-2.8.8,0,1.4.3,1.4.3v1.3s-.6-.3-1.3-.3c-.8,0-1.3.5-1.3,1.5v1.8h2.3v1.3Z"/>
    <path class="cls-1" d="M719.05,76.71h-2.3v8.3h-1.4v-8.3h-4.3v8.3h-1.4v-8.3h-1.5v-1.3h1.5v-1.4c0-1.8,1-2.8,2.6-2.8.8,0,1.4.3,1.4.3v1.3s-.6-.3-1.3-.3c-.8,0-1.3.5-1.3,1.5v1.4h4.3v-1.8c0-1.8,1-2.8,2.6-2.8.8,0,1.4.3,1.4.3v1.3s-.6-.3-1.3-.3c-.8,0-1.3.5-1.3,1.5v1.8h2.3v1.3Z"/>
    <path class="cls-1" d="M731.15,76.71h-2.3v8.3h-1.4v-8.3h-4.3v8.3h-1.4v-8.3h-1.5v-1.3h1.5v-1.4c0-1.8,1-2.8,2.6-2.8.8,0,1.4.3,1.4.3v1.3s-.6-.3-1.3-.3c-.8,0-1.3.5-1.3,1.5v1.4h4.3v-1.8c0-1.8,1-2.8,2.6-2.8.8,0,1.4.3,1.4.3v1.3s-.6-.3-1.3-.3c-.8,0-1.3.5-1.3,1.5v1.8h2.3v1.3Z"/>
  </g>
  <g>
    <path class="cls-1" d="M123.86,71.2l-.8,4.1h3.1l-.2,1.3h-3.14l-.62,3.2h2.96l-.2,1.3h-3.02l-.78,4.1h-1.3l.78-4.1h-3.8l-.78,4.1h-1.3l.78-4.1h-3.08l.2-1.3h3.14l.62-3.2h-2.96l.2-1.3h3l.8-4.1h1.3l-.8,4.1h3.8l.8-4.1h1.3ZM117.1,79.8h3.8l.62-3.2h-3.8l-.62,3.2Z"/>
    <path class="cls-1" d="M136.56,74.7c0,2.1-1.8,2.9-1.8,2.9,0,0,2.4.9,2.4,3.5,0,2.3-2,4.3-4.7,4.3s-4.7-2-4.7-4.3c0-2.6,2.4-3.5,2.4-3.5,0,0-1.8-.8-1.8-2.9,0-1.9,1.8-3.7,4.1-3.7s4.1,1.8,4.1,3.7ZM129.26,81.1c0,1.5,1.2,2.9,3.2,2.9s3.2-1.4,3.2-2.9-1.4-2.9-3.2-2.9-3.2,1.4-3.2,2.9ZM135.06,74.7c0-1.3-1-2.3-2.6-2.3s-2.6,1-2.6,2.3,1,2.3,2.6,2.3,2.6-1,2.6-2.3Z"/>
    <path class="cls-1" d="M141.36,77.1s1.2-1.7,3.4-1.7c2.4,0,4.6,2.2,4.6,5s-2.2,5-4.6,5c-2.2,0-3.4-1.7-3.4-1.7v1.5h-1.4v-14h1.4v5.9ZM144.76,84.1c1.6,0,3.2-1.6,3.2-3.7s-1.6-3.7-3.2-3.7c-1.7,0-3.4,1.7-3.4,3.7s1.7,3.7,3.4,3.7Z"/>
    <path class="cls-1" d="M157.66,79.1c0-1.4-1-2.4-2.4-2.4-1.7,0-2.7,1.4-2.7,1.4l-.9-.9s1.3-1.8,3.6-1.8,3.8,1.6,3.8,3.7v6.1h-1.4v-1.3s-1,1.5-3.1,1.5-3.4-1.4-3.4-2.8c0-1.6,1-2.6,2.8-2.9l3.7-.6ZM157.66,80.9v-.6l-3.3.6c-1.2.22-1.8.8-1.8,1.7,0,.8.7,1.5,2,1.5,1.8,0,3.1-1.3,3.1-3.2Z"/>
    <path class="cls-1" d="M171.46,80.8c0,2.6-2,4.6-4.8,4.6s-4.8-2-4.8-4.6c0-1.7,1-3,1-3l4.2-6.6h1.5l-3.3,5.2s.58-.2,1.5-.2c2.7,0,4.7,2,4.7,4.6ZM166.66,77.6c-2,0-3.3,1.3-3.3,3.2s1.3,3.2,3.3,3.2,3.3-1.3,3.3-3.2-1.3-3.2-3.3-3.2Z"/>
    <path class="cls-1" d="M179.86,79.1c0-1.4-1-2.4-2.4-2.4-1.7,0-2.7,1.4-2.7,1.4l-.9-.9s1.3-1.8,3.6-1.8,3.8,1.6,3.8,3.7v6.1h-1.4v-1.3s-1,1.5-3.1,1.5-3.4-1.4-3.4-2.8c0-1.6,1-2.6,2.8-2.9l3.7-.6ZM179.86,80.9v-.6l-3.3.6c-1.2.22-1.8.8-1.8,1.7,0,.8.7,1.5,2,1.5,1.8,0,3.1-1.3,3.1-3.2Z"/>
    <path class="cls-1" d="M187.86,71.2v14h-1.5v-11.2h-2.6v-.9c2.4-.1,3-1.9,3-1.9h1.1Z"/>
  </g>
  <g>
    <path class="cls-1" d="M234.94,71.2l-.8,4.1h3.1l-.2,1.3h-3.14l-.62,3.2h2.96l-.2,1.3h-3.02l-.78,4.1h-1.3l.78-4.1h-3.8l-.78,4.1h-1.3l.78-4.1h-3.08l.2-1.3h3.14l.62-3.2h-2.96l.2-1.3h3l.8-4.1h1.3l-.8,4.1h3.8l.8-4.1h1.3ZM228.18,79.8h3.8l.62-3.2h-3.8l-.62,3.2Z"/>
    <path class="cls-1" d="M244.46,85.4c-2.92,0-5.62-2.7-5.62-7.2s2.7-7.2,5.6-7.2,5.6,2.7,5.6,7.2-2.7,7.2-5.58,7.2ZM244.46,84c2.08,0,4.08-2,4.08-5.8s-2-5.8-4.1-5.8-4.1,2-4.1,5.8,2,5.8,4.12,5.8Z"/>
    <path class="cls-1" d="M258.06,85.4c-2.92,0-5.62-2.7-5.62-7.2s2.7-7.2,5.6-7.2,5.6,2.7,5.6,7.2-2.7,7.2-5.58,7.2ZM258.06,84c2.08,0,4.08-2,4.08-5.8s-2-5.8-4.1-5.8-4.1,2-4.1,5.8,2,5.8,4.12,5.8Z"/>
    <path class="cls-1" d="M274.84,74.7c0,2.1-1.8,2.9-1.8,2.9,0,0,2.4.9,2.4,3.5,0,2.3-2,4.3-4.7,4.3s-4.7-2-4.7-4.3c0-2.6,2.4-3.5,2.4-3.5,0,0-1.8-.8-1.8-2.9,0-1.9,1.8-3.7,4.1-3.7s4.1,1.8,4.1,3.7ZM267.54,81.1c0,1.5,1.2,2.9,3.2,2.9s3.2-1.4,3.2-2.9-1.4-2.9-3.2-2.9-3.2,1.4-3.2,2.9ZM273.34,74.7c0-1.3-1-2.3-2.6-2.3s-2.6,1-2.6,2.3,1,2.3,2.6,2.3,2.6-1,2.6-2.3Z"/>
    <path class="cls-1" d="M286.64,81.3c0,2.1-1.8,4.1-4.7,4.1-3.2,0-4.7-2.1-4.7-2.1l1-1s1.2,1.7,3.7,1.7c2.1,0,3.3-1.2,3.3-2.7,0-1.42-1.26-2.7-3.3-2.7h-1.4v-1.4h1.4c1.7,0,2.7-1,2.7-2.5,0-1.3-1-2.3-2.7-2.3-2.1,0-3.2,1.6-3.2,1.6l-1-1.1s1.4-1.9,4.2-1.9c2.5,0,4.2,1.7,4.2,3.7,0,2.4-2.1,3.1-2.1,3.1,0,0,2.6.6,2.6,3.5Z"/>
    <path class="cls-1" d="M296.86,71.2v1.4l-6.2,12.6h-1.5l6.2-12.6h-7.3v-1.4h8.8Z"/>
    <path class="cls-1" d="M307.14,71.2v1.4l-6.2,12.6h-1.5l6.2-12.6h-7.3v-1.4h8.8Z"/>
  </g>
  <g>
    <path class="cls-1" d="M347.98,71.2l-.8,4.1h3.1l-.2,1.3h-3.14l-.62,3.2h2.96l-.2,1.3h-3.02l-.78,4.1h-1.3l.78-4.1h-3.8l-.78,4.1h-1.3l.78-4.1h-3.08l.2-1.3h3.14l.62-3.2h-2.96l.2-1.3h3l.8-4.1h1.3l-.8,4.1h3.8l.8-4.1h1.3ZM341.22,79.8h3.8l.62-3.2h-3.8l-.62,3.2Z"/>
    <path class="cls-1" d="M360.68,81.3c0,2.1-1.8,4.1-4.7,4.1-3.2,0-4.7-2.1-4.7-2.1l1-1s1.2,1.7,3.7,1.7c2.1,0,3.3-1.2,3.3-2.7,0-1.42-1.26-2.7-3.3-2.7h-1.4v-1.4h1.4c1.7,0,2.7-1,2.7-2.5,0-1.3-1-2.3-2.7-2.3-2.1,0-3.2,1.6-3.2,1.6l-1-1.1s1.4-1.9,4.2-1.9c2.5,0,4.2,1.7,4.2,3.7,0,2.4-2.1,3.1-2.1,3.1,0,0,2.6.6,2.6,3.5Z"/>
    <path class="cls-1" d="M370.68,71.2h1.4v14h-1.4v-1.5s-1.2,1.7-3.4,1.7c-2.4,0-4.6-2.2-4.6-5s2.2-5,4.6-5c2.2,0,3.4,1.7,3.4,1.7v-5.9ZM367.28,76.7c-1.6,0-3.2,1.6-3.2,3.7s1.6,3.7,3.2,3.7c1.7,0,3.4-1.7,3.4-3.7s-1.7-3.7-3.4-3.7Z"/>
    <path class="cls-1" d="M384.78,80.8c0,2.7-1.9,4.6-4.8,4.6-3.1,0-4.6-2.1-4.6-2.1l1-1s1.2,1.7,3.6,1.7c2,0,3.3-1.3,3.3-3.2s-1.3-3.2-3.2-3.2c-2.12,0-3.1,1.5-3.1,1.5h-1.1l.5-7.9h7.5v1.4h-6.2l-.3,4.4s1-.8,2.7-.8c2.7,0,4.7,2,4.7,4.6Z"/>
    <path class="cls-1" d="M388.28,80.9c.1,1.7,1.6,3.2,3.4,3.2,2.02,0,3.1-1.6,3.1-1.6l.9.9s-1.4,2-4,2-4.8-2.2-4.8-5,2.2-5,4.7-5,4.6,2,4.6,4.8c0,.4-.1.72-.1.72l-7.8-.02ZM388.28,79.7h6.5c-.2-1.7-1.5-3-3.2-3s-3.1,1.4-3.3,3Z"/>
    <path class="cls-1" d="M406.58,71.2v1.4l-6.2,12.6h-1.5l6.2-12.6h-7.3v-1.4h8.8Z"/>
    <path class="cls-1" d="M417.28,80.8v1.4h-1.8v3h-1.5v-3h-7.1v-1.7l6.7-9.3h1.9v9.6h1.8ZM413.98,72.9l-5.7,7.9h5.7v-7.9Z"/>
  </g>
  <g>
    <path class="cls-1" d="M462.08,71.2l-.8,4.1h3.1l-.2,1.3h-3.14l-.62,3.2h2.96l-.2,1.3h-3.02l-.78,4.1h-1.3l.78-4.1h-3.8l-.78,4.1h-1.3l.78-4.1h-3.08l.2-1.3h3.14l.62-3.2h-2.96l.2-1.3h3l.8-4.1h1.3l-.8,4.1h3.8l.8-4.1h1.3ZM455.32,79.8h3.8l.62-3.2h-3.8l-.62,3.2Z"/>
    <path class="cls-1" d="M472.08,79.1c0-1.4-1-2.4-2.4-2.4-1.7,0-2.7,1.4-2.7,1.4l-.9-.9s1.3-1.8,3.6-1.8,3.8,1.6,3.8,3.7v6.1h-1.4v-1.3s-1,1.5-3.1,1.5-3.4-1.4-3.4-2.8c0-1.6,1-2.6,2.8-2.9l3.7-.6ZM472.08,80.9v-.6l-3.3.6c-1.2.22-1.8.8-1.8,1.7,0,.8.7,1.5,2,1.5,1.8,0,3.1-1.3,3.1-3.2Z"/>
    <path class="cls-1" d="M480.88,76.9h-2.3v8.3h-1.4v-8.3h-1.5v-1.3h1.5v-1.8c0-1.8,1-2.8,2.6-2.8.8,0,1.4.3,1.4.3v1.3s-.6-.3-1.3-.3c-.8,0-1.3.5-1.3,1.5v1.8h2.3v1.3Z"/>
    <path class="cls-1" d="M492.28,80.8c0,2.6-2,4.6-4.8,4.6s-4.8-2-4.8-4.6c0-1.7,1-3,1-3l4.2-6.6h1.5l-3.3,5.2s.58-.2,1.5-.2c2.7,0,4.7,2,4.7,4.6ZM487.48,77.6c-2,0-3.3,1.3-3.3,3.2s1.3,3.2,3.3,3.2,3.3-1.3,3.3-3.2-1.3-3.2-3.3-3.2Z"/>
    <path class="cls-1" d="M504.08,80.8c0,2.6-2,4.6-4.8,4.6s-4.8-2-4.8-4.6c0-1.7,1-3,1-3l4.2-6.6h1.5l-3.3,5.2s.58-.2,1.5-.2c2.7,0,4.7,2,4.7,4.6ZM499.28,77.6c-2,0-3.3,1.3-3.3,3.2s1.3,3.2,3.3,3.2,3.3-1.3,3.3-3.2-1.3-3.2-3.3-3.2Z"/>
    <path class="cls-1" d="M513.8,71.2v1.4l-6.2,12.6h-1.5l6.2-12.6h-7.3v-1.4h8.8Z"/>
    <path class="cls-1" d="M519.9,75.4c2.5,0,3.9,1.9,3.9,1.9l-1,1s-1-1.6-2.9-1.6c-1.8,0-3.4,1.6-3.4,3.7s1.6,3.7,3.4,3.7c1.9,0,3-1.6,3-1.6l1,.9s-1.5,2-4,2-4.8-2.2-4.8-5,2.2-5,4.8-5Z"/>
  </g>
</svg>